<svg xmlns="http://www.w3.org/2000/svg" xmlns:xlink="http://www.w3.org/1999/xlink" width="1080" zoomAndPan="magnify" viewBox="0 0 810 809.999993" height="1080" preserveAspectRatio="xMidYMid meet" version="1.0"><path fill="#000000" d="M 818.738281 173.269531 C 818.738281 145.84375 807.832031 119.507812 788.457031 100.097656 C 769.050781 80.722656 742.71875 69.8125 715.296875 69.8125 C 571.160156 69.8125 257.601562 69.8125 113.464844 69.8125 C 86.042969 69.8125 59.710938 80.722656 40.304688 100.097656 C 20.929688 119.507812 10.023438 145.84375 10.023438 173.269531 L 10.023438 549.480469 C 10.023438 606.625 56.328125 652.9375 113.464844 652.9375 C 113.464844 652.9375 278.179688 652.9375 278.179688 652.9375 C 278.179688 652.9375 395.5 758.539062 395.5 758.539062 C 406.257812 768.207031 422.503906 768.207031 433.261719 758.539062 L 550.582031 652.9375 C 550.582031 652.9375 715.296875 652.9375 715.296875 652.9375 C 772.433594 652.9375 818.738281 606.625 818.738281 549.480469 Z M 494.425781 401.554688 C 509.207031 379.246094 517.820312 352.496094 517.820312 323.753906 C 517.820312 245.878906 454.628906 182.675781 376.765625 182.675781 C 298.902344 182.675781 235.710938 245.878906 235.710938 323.753906 C 235.710938 401.628906 298.902344 464.832031 376.765625 464.832031 C 405.503906 464.832031 432.246094 456.21875 454.554688 441.433594 L 544.902344 531.796875 C 555.886719 542.820312 573.792969 542.820312 584.773438 531.796875 C 595.796875 520.8125 595.796875 502.90625 584.773438 491.917969 Z M 376.765625 239.105469 C 423.484375 239.105469 461.398438 277.027344 461.398438 323.753906 C 461.398438 370.480469 423.484375 408.402344 376.765625 408.402344 C 330.046875 408.402344 292.132812 370.480469 292.132812 323.753906 C 292.132812 277.027344 330.046875 239.105469 376.765625 239.105469 Z M 376.765625 239.105469 " fill-opacity="1" fill-rule="evenodd"/></svg>