<svg xmlns="http://www.w3.org/2000/svg" xmlns:xlink="http://www.w3.org/1999/xlink" width="1080" zoomAndPan="magnify" viewBox="0 0 810 809.999993" height="1080" preserveAspectRatio="xMidYMid meet" version="1.0"><path fill="#000000" d="M 480.9375 0 L 75.9375 0 C 74.695312 0.00390625 73.453125 0.0390625 72.214844 0.101562 C 70.972656 0.167969 69.738281 0.261719 68.5 0.386719 C 67.265625 0.511719 66.035156 0.664062 64.804688 0.851562 C 63.578125 1.035156 62.355469 1.25 61.136719 1.496094 C 59.921875 1.742188 58.710938 2.015625 57.507812 2.320312 C 56.300781 2.625 55.105469 2.957031 53.917969 3.320312 C 52.730469 3.683594 51.554688 4.074219 50.382812 4.496094 C 49.214844 4.914062 48.058594 5.363281 46.910156 5.839844 C 45.765625 6.316406 44.632812 6.820312 43.507812 7.355469 C 42.386719 7.886719 41.28125 8.445312 40.183594 9.03125 C 39.089844 9.617188 38.011719 10.230469 36.945312 10.871094 C 35.882812 11.511719 34.832031 12.175781 33.800781 12.867188 C 32.769531 13.558594 31.753906 14.273438 30.757812 15.011719 C 29.761719 15.753906 28.78125 16.515625 27.824219 17.304688 C 26.863281 18.09375 25.921875 18.90625 25.003906 19.738281 C 24.082031 20.574219 23.183594 21.429688 22.308594 22.308594 C 21.429688 23.183594 20.574219 24.082031 19.738281 25.003906 C 18.90625 25.921875 18.09375 26.863281 17.304688 27.824219 C 16.515625 28.78125 15.753906 29.761719 15.011719 30.757812 C 14.273438 31.753906 13.558594 32.769531 12.867188 33.800781 C 12.175781 34.832031 11.511719 35.882812 10.871094 36.945312 C 10.230469 38.011719 9.617188 39.089844 9.03125 40.183594 C 8.445312 41.28125 7.886719 42.386719 7.355469 43.507812 C 6.820312 44.632812 6.316406 45.765625 5.839844 46.910156 C 5.363281 48.058594 4.914062 49.214844 4.492188 50.382812 C 4.074219 51.554688 3.683594 52.730469 3.320312 53.917969 C 2.957031 55.105469 2.625 56.300781 2.320312 57.507812 C 2.015625 58.710938 1.742188 59.921875 1.496094 61.136719 C 1.25 62.355469 1.035156 63.578125 0.851562 64.804688 C 0.664062 66.035156 0.511719 67.265625 0.386719 68.5 C 0.261719 69.738281 0.167969 70.972656 0.101562 72.214844 C 0.0390625 73.453125 0.00390625 74.695312 0 75.9375 L 0 379.6875 C 0.00390625 381.636719 0.0859375 383.582031 0.238281 385.523438 C 0.394531 387.464844 0.621094 389.398438 0.925781 391.320312 C 1.226562 393.246094 1.601562 395.15625 2.050781 397.050781 C 2.5 398.945312 3.019531 400.820312 3.613281 402.675781 C 4.203125 404.535156 4.867188 406.363281 5.597656 408.167969 C 6.332031 409.972656 7.132812 411.746094 8 413.492188 C 8.867188 415.234375 9.800781 416.941406 10.800781 418.613281 C 11.800781 420.285156 12.863281 421.917969 13.988281 423.507812 C 15.109375 425.101562 16.292969 426.644531 17.535156 428.144531 C 18.777344 429.644531 20.078125 431.09375 21.429688 432.496094 C 22.785156 433.898438 24.191406 435.242188 25.648438 436.535156 C 27.105469 437.828125 28.609375 439.066406 30.160156 440.242188 C 31.710938 441.421875 33.304688 442.539062 34.941406 443.59375 C 36.578125 444.648438 38.253906 445.640625 39.96875 446.566406 C 41.679688 447.496094 43.425781 448.355469 45.203125 449.148438 C 46.984375 449.941406 48.789062 450.667969 50.625 451.320312 L 50.625 531.5625 C 50.621094 532.808594 50.707031 534.046875 50.890625 535.277344 C 51.070312 536.507812 51.339844 537.71875 51.703125 538.910156 C 52.0625 540.101562 52.511719 541.261719 53.046875 542.382812 C 53.582031 543.507812 54.195312 544.585938 54.890625 545.621094 C 55.585938 546.652344 56.355469 547.625 57.195312 548.542969 C 58.039062 549.460938 58.941406 550.3125 59.910156 551.09375 C 60.878906 551.875 61.902344 552.582031 62.976562 553.210938 C 64.046875 553.839844 65.164062 554.386719 66.320312 554.851562 C 69.363281 556.289062 72.570312 556.964844 75.9375 556.875 C 77.601562 556.878906 79.253906 556.722656 80.886719 556.40625 C 82.519531 556.085938 84.109375 555.613281 85.648438 554.984375 C 87.191406 554.351562 88.65625 553.582031 90.046875 552.664062 C 91.4375 551.746094 92.722656 550.703125 93.910156 549.535156 L 187.566406 455.625 L 480.9375 455.625 C 482.179688 455.621094 483.421875 455.585938 484.660156 455.523438 C 485.902344 455.457031 487.136719 455.363281 488.375 455.238281 C 489.609375 455.113281 490.839844 454.960938 492.070312 454.773438 C 493.296875 454.589844 494.519531 454.375 495.738281 454.128906 C 496.953125 453.882812 498.164062 453.609375 499.367188 453.304688 C 500.574219 453 501.769531 452.667969 502.957031 452.304688 C 504.144531 451.941406 505.320312 451.550781 506.492188 451.132812 C 507.660156 450.710938 508.816406 450.261719 509.964844 449.785156 C 511.109375 449.308594 512.242188 448.804688 513.367188 448.273438 C 514.488281 447.738281 515.597656 447.179688 516.691406 446.59375 C 517.785156 446.007812 518.863281 445.394531 519.929688 444.753906 C 520.992188 444.113281 522.042969 443.449219 523.074219 442.757812 C 524.105469 442.070312 525.121094 441.351562 526.117188 440.613281 C 527.113281 439.871094 528.09375 439.109375 529.050781 438.320312 C 530.011719 437.53125 530.953125 436.722656 531.871094 435.886719 C 532.792969 435.050781 533.691406 434.195312 534.570312 433.320312 C 535.445312 432.441406 536.304688 431.542969 537.136719 430.621094 C 537.972656 429.703125 538.78125 428.761719 539.570312 427.800781 C 540.359375 426.84375 541.121094 425.863281 541.863281 424.867188 C 542.601562 423.871094 543.320312 422.855469 544.007812 421.824219 C 544.699219 420.792969 545.363281 419.742188 546.003906 418.679688 C 546.644531 417.613281 547.257812 416.535156 547.84375 415.441406 C 548.429688 414.347656 548.988281 413.238281 549.523438 412.117188 C 550.054688 410.992188 550.558594 409.859375 551.035156 408.714844 C 551.511719 407.566406 551.960938 406.410156 552.382812 405.242188 C 552.800781 404.070312 553.191406 402.894531 553.554688 401.707031 C 553.917969 400.519531 554.25 399.324219 554.554688 398.117188 C 554.859375 396.914062 555.132812 395.703125 555.378906 394.488281 C 555.625 393.269531 555.839844 392.046875 556.023438 390.820312 C 556.210938 389.589844 556.363281 388.359375 556.488281 387.125 C 556.613281 385.886719 556.707031 384.652344 556.773438 383.410156 C 556.835938 382.171875 556.871094 380.929688 556.875 379.6875 L 556.875 75.9375 C 556.871094 74.695312 556.835938 73.453125 556.773438 72.214844 C 556.707031 70.972656 556.613281 69.738281 556.488281 68.5 C 556.363281 67.265625 556.210938 66.035156 556.023438 64.804688 C 555.839844 63.578125 555.625 62.355469 555.378906 61.136719 C 555.132812 59.921875 554.859375 58.710938 554.554688 57.507812 C 554.25 56.300781 553.917969 55.105469 553.554688 53.917969 C 553.191406 52.730469 552.800781 51.554688 552.382812 50.382812 C 551.960938 49.214844 551.511719 48.058594 551.035156 46.910156 C 550.558594 45.765625 550.054688 44.632812 549.523438 43.507812 C 548.988281 42.386719 548.429688 41.277344 547.84375 40.183594 C 547.257812 39.089844 546.644531 38.011719 546.003906 36.945312 C 545.363281 35.882812 544.699219 34.832031 544.007812 33.800781 C 543.320312 32.769531 542.601562 31.753906 541.863281 30.757812 C 541.121094 29.761719 540.359375 28.78125 539.570312 27.824219 C 538.78125 26.863281 537.972656 25.921875 537.136719 25.003906 C 536.304688 24.082031 535.445312 23.183594 534.570312 22.304688 C 533.691406 21.429688 532.792969 20.574219 531.871094 19.738281 C 530.953125 18.902344 530.011719 18.09375 529.050781 17.304688 C 528.09375 16.515625 527.113281 15.753906 526.117188 15.011719 C 525.121094 14.273438 524.105469 13.554688 523.074219 12.867188 C 522.042969 12.175781 520.992188 11.511719 519.929688 10.871094 C 518.863281 10.230469 517.785156 9.617188 516.691406 9.03125 C 515.597656 8.445312 514.488281 7.886719 513.367188 7.351562 C 512.242188 6.820312 511.109375 6.316406 509.964844 5.839844 C 508.816406 5.363281 507.660156 4.914062 506.492188 4.492188 C 505.320312 4.074219 504.144531 3.683594 502.957031 3.320312 C 501.769531 2.957031 500.574219 2.625 499.367188 2.320312 C 498.164062 2.015625 496.953125 1.742188 495.738281 1.496094 C 494.519531 1.25 493.296875 1.035156 492.070312 0.851562 C 490.839844 0.664062 489.609375 0.511719 488.375 0.386719 C 487.136719 0.261719 485.902344 0.167969 484.660156 0.101562 C 483.421875 0.0390625 482.179688 0.00390625 480.9375 0 Z M 405 354.375 L 151.875 354.375 C 151.046875 354.375 150.21875 354.335938 149.394531 354.253906 C 148.570312 354.171875 147.75 354.050781 146.9375 353.886719 C 146.125 353.726562 145.320312 353.527344 144.527344 353.285156 C 143.734375 353.042969 142.953125 352.765625 142.1875 352.449219 C 141.421875 352.132812 140.675781 351.777344 139.941406 351.386719 C 139.210938 350.996094 138.5 350.570312 137.8125 350.109375 C 137.121094 349.648438 136.457031 349.15625 135.816406 348.628906 C 135.175781 348.101562 134.5625 347.546875 133.976562 346.960938 C 133.390625 346.375 132.835938 345.761719 132.308594 345.121094 C 131.78125 344.480469 131.289062 343.816406 130.828125 343.125 C 130.367188 342.4375 129.941406 341.726562 129.550781 340.996094 C 129.160156 340.261719 128.804688 339.515625 128.488281 338.75 C 128.171875 337.984375 127.894531 337.203125 127.652344 336.410156 C 127.410156 335.617188 127.210938 334.8125 127.050781 334 C 126.886719 333.1875 126.765625 332.367188 126.683594 331.542969 C 126.601562 330.71875 126.5625 329.890625 126.5625 329.0625 C 126.5625 328.234375 126.601562 327.40625 126.683594 326.582031 C 126.765625 325.757812 126.886719 324.9375 127.050781 324.125 C 127.210938 323.3125 127.410156 322.507812 127.652344 321.714844 C 127.894531 320.921875 128.171875 320.140625 128.488281 319.375 C 128.804688 318.609375 129.160156 317.863281 129.550781 317.128906 C 129.941406 316.398438 130.367188 315.6875 130.828125 315 C 131.289062 314.308594 131.78125 313.644531 132.308594 313.003906 C 132.835938 312.363281 133.390625 311.75 133.976562 311.164062 C 134.5625 310.578125 135.175781 310.023438 135.816406 309.496094 C 136.457031 308.96875 137.121094 308.476562 137.8125 308.015625 C 138.5 307.554688 139.210938 307.128906 139.941406 306.738281 C 140.675781 306.347656 141.421875 305.992188 142.1875 305.675781 C 142.953125 305.359375 143.734375 305.082031 144.527344 304.839844 C 145.320312 304.597656 146.125 304.398438 146.9375 304.238281 C 147.75 304.074219 148.570312 303.953125 149.394531 303.871094 C 150.21875 303.789062 151.046875 303.75 151.875 303.75 L 405 303.75 C 405.828125 303.75 406.65625 303.789062 407.480469 303.871094 C 408.304688 303.953125 409.125 304.074219 409.9375 304.238281 C 410.75 304.398438 411.554688 304.597656 412.347656 304.839844 C 413.140625 305.082031 413.921875 305.359375 414.6875 305.675781 C 415.453125 305.992188 416.199219 306.347656 416.933594 306.738281 C 417.664062 307.128906 418.375 307.554688 419.0625 308.015625 C 419.753906 308.476562 420.417969 308.96875 421.058594 309.496094 C 421.699219 310.023438 422.3125 310.578125 422.898438 311.164062 C 423.484375 311.75 424.039062 312.363281 424.566406 313.003906 C 425.09375 313.644531 425.585938 314.308594 426.046875 315 C 426.507812 315.6875 426.933594 316.398438 427.324219 317.128906 C 427.714844 317.863281 428.066406 318.609375 428.386719 319.375 C 428.703125 320.140625 428.980469 320.921875 429.222656 321.714844 C 429.464844 322.507812 429.664062 323.3125 429.824219 324.125 C 429.988281 324.9375 430.109375 325.757812 430.191406 326.582031 C 430.273438 327.40625 430.3125 328.234375 430.3125 329.0625 C 430.3125 329.890625 430.273438 330.71875 430.191406 331.542969 C 430.109375 332.367188 429.988281 333.1875 429.824219 334 C 429.664062 334.8125 429.464844 335.617188 429.222656 336.410156 C 428.980469 337.203125 428.703125 337.984375 428.386719 338.75 C 428.070312 339.515625 427.714844 340.261719 427.324219 340.996094 C 426.933594 341.726562 426.507812 342.4375 426.046875 343.125 C 425.585938 343.816406 425.09375 344.480469 424.566406 345.121094 C 424.039062 345.761719 423.484375 346.375 422.898438 346.960938 C 422.3125 347.546875 421.699219 348.101562 421.058594 348.628906 C 420.417969 349.15625 419.753906 349.648438 419.0625 350.109375 C 418.375 350.570312 417.664062 350.996094 416.933594 351.386719 C 416.199219 351.777344 415.453125 352.132812 414.6875 352.449219 C 413.921875 352.765625 413.140625 353.042969 412.347656 353.285156 C 411.554688 353.527344 410.75 353.726562 409.9375 353.886719 C 409.125 354.050781 408.304688 354.171875 407.480469 354.253906 C 406.65625 354.335938 405.828125 354.375 405 354.375 Z M 405 253.125 L 151.875 253.125 C 151.046875 253.125 150.21875 253.085938 149.394531 253.003906 C 148.570312 252.921875 147.75 252.800781 146.9375 252.636719 C 146.125 252.476562 145.320312 252.277344 144.527344 252.035156 C 143.734375 251.792969 142.953125 251.515625 142.1875 251.199219 C 141.421875 250.882812 140.675781 250.527344 139.941406 250.136719 C 139.210938 249.746094 138.5 249.320312 137.8125 248.859375 C 137.121094 248.398438 136.457031 247.90625 135.816406 247.378906 C 135.175781 246.851562 134.5625 246.296875 133.976562 245.710938 C 133.390625 245.125 132.835938 244.511719 132.308594 243.871094 C 131.78125 243.230469 131.289062 242.566406 130.828125 241.875 C 130.367188 241.1875 129.941406 240.476562 129.550781 239.746094 C 129.160156 239.011719 128.804688 238.265625 128.488281 237.5 C 128.171875 236.734375 127.894531 235.953125 127.652344 235.160156 C 127.410156 234.367188 127.210938 233.5625 127.050781 232.75 C 126.886719 231.9375 126.765625 231.117188 126.683594 230.292969 C 126.601562 229.46875 126.5625 228.640625 126.5625 227.8125 C 126.5625 226.984375 126.601562 226.15625 126.683594 225.332031 C 126.765625 224.507812 126.886719 223.6875 127.050781 222.875 C 127.210938 222.0625 127.410156 221.257812 127.652344 220.464844 C 127.894531 219.671875 128.171875 218.890625 128.488281 218.125 C 128.804688 217.359375 129.160156 216.613281 129.550781 215.878906 C 129.941406 215.148438 130.367188 214.4375 130.828125 213.75 C 131.289062 213.058594 131.78125 212.394531 132.308594 211.753906 C 132.835938 211.113281 133.390625 210.5 133.976562 209.914062 C 134.5625 209.328125 135.175781 208.773438 135.816406 208.246094 C 136.457031 207.71875 137.121094 207.226562 137.8125 206.765625 C 138.5 206.304688 139.210938 205.878906 139.941406 205.488281 C 140.675781 205.097656 141.421875 204.742188 142.1875 204.425781 C 142.953125 204.109375 143.734375 203.832031 144.527344 203.589844 C 145.320312 203.347656 146.125 203.148438 146.9375 202.988281 C 147.75 202.824219 148.570312 202.703125 149.394531 202.621094 C 150.21875 202.539062 151.046875 202.5 151.875 202.5 L 405 202.5 C 405.828125 202.5 406.65625 202.539062 407.480469 202.621094 C 408.304688 202.703125 409.125 202.824219 409.9375 202.988281 C 410.75 203.148438 411.554688 203.347656 412.347656 203.589844 C 413.140625 203.832031 413.921875 204.109375 414.6875 204.425781 C 415.453125 204.742188 416.199219 205.097656 416.933594 205.488281 C 417.664062 205.878906 418.375 206.304688 419.0625 206.765625 C 419.753906 207.226562 420.417969 207.71875 421.058594 208.246094 C 421.699219 208.773438 422.3125 209.328125 422.898438 209.914062 C 423.484375 210.5 424.039062 211.113281 424.566406 211.753906 C 425.09375 212.394531 425.585938 213.058594 426.046875 213.75 C 426.507812 214.4375 426.933594 215.148438 427.324219 215.878906 C 427.714844 216.613281 428.066406 217.359375 428.386719 218.125 C 428.703125 218.890625 428.980469 219.671875 429.222656 220.464844 C 429.464844 221.257812 429.664062 222.0625 429.824219 222.875 C 429.988281 223.6875 430.109375 224.507812 430.191406 225.332031 C 430.273438 226.15625 430.3125 226.984375 430.3125 227.8125 C 430.3125 228.640625 430.273438 229.46875 430.191406 230.292969 C 430.109375 231.117188 429.988281 231.9375 429.824219 232.75 C 429.664062 233.5625 429.464844 234.367188 429.222656 235.160156 C 428.980469 235.953125 428.703125 236.734375 428.386719 237.5 C 428.070312 238.265625 427.714844 239.011719 427.324219 239.746094 C 426.933594 240.476562 426.507812 241.1875 426.046875 241.875 C 425.585938 242.566406 425.09375 243.230469 424.566406 243.871094 C 424.039062 244.511719 423.484375 245.125 422.898438 245.710938 C 422.3125 246.296875 421.699219 246.851562 421.058594 247.378906 C 420.417969 247.90625 419.753906 248.398438 419.0625 248.859375 C 418.375 249.320312 417.664062 249.746094 416.933594 250.136719 C 416.199219 250.527344 415.453125 250.882812 414.6875 251.199219 C 413.921875 251.515625 413.140625 251.792969 412.347656 252.035156 C 411.554688 252.277344 410.75 252.476562 409.9375 252.636719 C 409.125 252.800781 408.304688 252.921875 407.480469 253.003906 C 406.65625 253.085938 405.828125 253.125 405 253.125 Z M 405 151.875 L 151.875 151.875 C 151.046875 151.875 150.21875 151.835938 149.394531 151.753906 C 148.570312 151.671875 147.75 151.550781 146.9375 151.386719 C 146.125 151.226562 145.320312 151.027344 144.527344 150.785156 C 143.734375 150.542969 142.953125 150.265625 142.1875 149.949219 C 141.421875 149.632812 140.675781 149.277344 139.941406 148.886719 C 139.210938 148.496094 138.5 148.070312 137.8125 147.609375 C 137.121094 147.148438 136.457031 146.65625 135.816406 146.128906 C 135.175781 145.601562 134.5625 145.046875 133.976562 144.460938 C 133.390625 143.875 132.835938 143.261719 132.308594 142.621094 C 131.78125 141.980469 131.289062 141.316406 130.828125 140.625 C 130.367188 139.9375 129.941406 139.226562 129.550781 138.496094 C 129.160156 137.761719 128.804688 137.015625 128.488281 136.25 C 128.171875 135.484375 127.894531 134.703125 127.652344 133.910156 C 127.410156 133.117188 127.210938 132.3125 127.050781 131.5 C 126.886719 130.6875 126.765625 129.867188 126.683594 129.042969 C 126.601562 128.21875 126.5625 127.390625 126.5625 126.5625 C 126.5625 125.734375 126.601562 124.90625 126.683594 124.082031 C 126.765625 123.257812 126.886719 122.4375 127.050781 121.625 C 127.210938 120.8125 127.410156 120.007812 127.652344 119.214844 C 127.894531 118.421875 128.171875 117.640625 128.488281 116.875 C 128.804688 116.109375 129.160156 115.363281 129.550781 114.628906 C 129.941406 113.898438 130.367188 113.1875 130.828125 112.5 C 131.289062 111.808594 131.78125 111.144531 132.308594 110.503906 C 132.835938 109.863281 133.390625 109.25 133.976562 108.664062 C 134.5625 108.078125 135.175781 107.523438 135.816406 106.996094 C 136.457031 106.46875 137.121094 105.976562 137.8125 105.515625 C 138.5 105.054688 139.210938 104.628906 139.941406 104.238281 C 140.675781 103.847656 141.421875 103.492188 142.1875 103.175781 C 142.953125 102.859375 143.734375 102.582031 144.527344 102.339844 C 145.320312 102.097656 146.125 101.898438 146.9375 101.738281 C 147.75 101.574219 148.570312 101.453125 149.394531 101.371094 C 150.21875 101.289062 151.046875 101.25 151.875 101.25 L 405 101.25 C 405.828125 101.25 406.65625 101.289062 407.480469 101.371094 C 408.304688 101.453125 409.125 101.574219 409.9375 101.738281 C 410.75 101.898438 411.554688 102.097656 412.347656 102.339844 C 413.140625 102.582031 413.921875 102.859375 414.6875 103.175781 C 415.453125 103.492188 416.199219 103.847656 416.933594 104.238281 C 417.664062 104.628906 418.375 105.054688 419.0625 105.515625 C 419.753906 105.976562 420.417969 106.46875 421.058594 106.996094 C 421.699219 107.523438 422.3125 108.078125 422.898438 108.664062 C 423.484375 109.25 424.039062 109.863281 424.566406 110.503906 C 425.09375 111.144531 425.585938 111.808594 426.046875 112.5 C 426.507812 113.1875 426.933594 113.898438 427.324219 114.628906 C 427.714844 115.363281 428.066406 116.109375 428.386719 116.875 C 428.703125 117.640625 428.980469 118.421875 429.222656 119.214844 C 429.464844 120.007812 429.664062 120.8125 429.824219 121.625 C 429.988281 122.4375 430.109375 123.257812 430.191406 124.082031 C 430.273438 124.90625 430.3125 125.734375 430.3125 126.5625 C 430.3125 127.390625 430.273438 128.21875 430.191406 129.042969 C 430.109375 129.867188 429.988281 130.6875 429.824219 131.5 C 429.664062 132.3125 429.464844 133.117188 429.222656 133.910156 C 428.980469 134.703125 428.703125 135.484375 428.386719 136.25 C 428.070312 137.015625 427.714844 137.761719 427.324219 138.496094 C 426.933594 139.226562 426.507812 139.9375 426.046875 140.625 C 425.585938 141.316406 425.09375 141.980469 424.566406 142.621094 C 424.039062 143.261719 423.484375 143.875 422.898438 144.460938 C 422.3125 145.046875 421.699219 145.601562 421.058594 146.128906 C 420.417969 146.65625 419.753906 147.148438 419.0625 147.609375 C 418.375 148.070312 417.664062 148.496094 416.933594 148.886719 C 416.199219 149.277344 415.453125 149.632812 414.6875 149.949219 C 413.921875 150.265625 413.140625 150.542969 412.347656 150.785156 C 411.554688 151.027344 410.75 151.226562 409.9375 151.386719 C 409.125 151.550781 408.304688 151.671875 407.480469 151.753906 C 406.65625 151.835938 405.828125 151.875 405 151.875 Z M 405 151.875 " fill-opacity="1" fill-rule="nonzero"/><path fill="#000000" d="M 810 329.0625 L 810 632.8125 C 809.996094 634.761719 809.914062 636.707031 809.761719 638.648438 C 809.605469 640.589844 809.378906 642.523438 809.078125 644.445312 C 808.773438 646.371094 808.398438 648.28125 807.949219 650.175781 C 807.5 652.070312 806.980469 653.945312 806.390625 655.804688 C 805.796875 657.660156 805.132812 659.488281 804.402344 661.292969 C 803.667969 663.097656 802.867188 664.871094 802 666.617188 C 801.132812 668.359375 800.199219 670.066406 799.199219 671.738281 C 798.199219 673.414062 797.136719 675.042969 796.015625 676.632812 C 794.890625 678.226562 793.707031 679.769531 792.464844 681.269531 C 791.222656 682.769531 789.921875 684.222656 788.570312 685.621094 C 787.214844 687.023438 785.808594 688.367188 784.351562 689.660156 C 782.898438 690.953125 781.390625 692.191406 779.839844 693.367188 C 778.289062 694.546875 776.695312 695.664062 775.058594 696.71875 C 773.421875 697.773438 771.746094 698.765625 770.03125 699.691406 C 768.320312 700.621094 766.574219 701.480469 764.796875 702.273438 C 763.015625 703.066406 761.210938 703.792969 759.375 704.445312 L 759.375 784.6875 C 759.378906 785.933594 759.292969 787.171875 759.109375 788.402344 C 758.929688 789.632812 758.660156 790.84375 758.296875 792.035156 C 757.9375 793.226562 757.488281 794.386719 756.953125 795.507812 C 756.417969 796.632812 755.804688 797.710938 755.109375 798.746094 C 754.414062 799.777344 753.644531 800.75 752.804688 801.667969 C 751.960938 802.585938 751.058594 803.4375 750.089844 804.21875 C 749.121094 805 748.097656 805.707031 747.023438 806.335938 C 745.953125 806.964844 744.835938 807.511719 743.679688 807.976562 C 740.636719 809.414062 737.429688 810.089844 734.0625 810 C 732.398438 810.003906 730.746094 809.847656 729.113281 809.53125 C 727.480469 809.210938 725.890625 808.738281 724.351562 808.109375 C 722.808594 807.480469 721.34375 806.707031 719.953125 805.789062 C 718.5625 804.871094 717.277344 803.828125 716.089844 802.660156 L 622.433594 708.75 L 329.0625 708.75 C 327.820312 708.746094 326.578125 708.710938 325.339844 708.648438 C 324.097656 708.582031 322.863281 708.488281 321.625 708.363281 C 320.390625 708.238281 319.160156 708.085938 317.929688 707.898438 C 316.703125 707.714844 315.480469 707.5 314.261719 707.253906 C 313.046875 707.007812 311.835938 706.734375 310.632812 706.429688 C 309.425781 706.125 308.230469 705.792969 307.042969 705.429688 C 305.855469 705.066406 304.679688 704.675781 303.507812 704.253906 C 302.339844 703.835938 301.183594 703.386719 300.035156 702.910156 C 298.890625 702.433594 297.757812 701.929688 296.632812 701.394531 C 295.511719 700.863281 294.40625 700.304688 293.308594 699.71875 C 292.214844 699.132812 291.136719 698.519531 290.070312 697.878906 C 289.007812 697.238281 287.957031 696.574219 286.925781 695.882812 C 285.894531 695.191406 284.878906 694.476562 283.882812 693.738281 C 282.886719 692.996094 281.90625 692.234375 280.949219 691.445312 C 279.988281 690.65625 279.046875 689.84375 278.128906 689.011719 C 277.207031 688.175781 276.308594 687.320312 275.433594 686.441406 C 274.554688 685.566406 273.699219 684.667969 272.863281 683.746094 C 272.03125 682.828125 271.21875 681.886719 270.429688 680.925781 C 269.640625 679.96875 268.878906 678.988281 268.136719 677.992188 C 267.398438 676.996094 266.683594 675.980469 265.992188 674.949219 C 265.300781 673.917969 264.636719 672.867188 263.996094 671.804688 C 263.355469 670.738281 262.742188 669.660156 262.15625 668.566406 C 261.570312 667.46875 261.011719 666.363281 260.480469 665.242188 C 259.945312 664.117188 259.441406 662.984375 258.964844 661.839844 C 258.488281 660.691406 258.039062 659.535156 257.617188 658.367188 C 257.199219 657.195312 256.808594 656.019531 256.445312 654.832031 C 256.082031 653.644531 255.75 652.449219 255.445312 651.242188 C 255.140625 650.039062 254.867188 648.828125 254.621094 647.613281 C 254.375 646.394531 254.160156 645.171875 253.976562 643.945312 C 253.789062 642.714844 253.636719 641.484375 253.511719 640.25 C 253.386719 639.011719 253.292969 637.773438 253.226562 636.535156 C 253.164062 635.296875 253.128906 634.054688 253.125 632.8125 L 253.125 506.25 L 480.9375 506.25 C 483.007812 506.25 485.078125 506.199219 487.148438 506.09375 C 489.214844 505.992188 491.28125 505.839844 493.339844 505.636719 C 495.402344 505.433594 497.457031 505.179688 499.503906 504.875 C 501.554688 504.570312 503.59375 504.214844 505.625 503.808594 C 507.65625 503.40625 509.675781 502.953125 511.6875 502.449219 C 513.695312 501.945312 515.691406 501.390625 517.671875 500.789062 C 519.652344 500.1875 521.617188 499.539062 523.570312 498.839844 C 525.519531 498.140625 527.449219 497.398438 529.363281 496.605469 C 531.277344 495.8125 533.167969 494.972656 535.042969 494.085938 C 536.914062 493.199219 538.761719 492.269531 540.589844 491.292969 C 542.414062 490.316406 544.21875 489.296875 545.992188 488.230469 C 547.769531 487.164062 549.519531 486.058594 551.242188 484.90625 C 552.964844 483.753906 554.65625 482.5625 556.320312 481.328125 C 557.984375 480.09375 559.613281 478.820312 561.214844 477.507812 C 562.816406 476.195312 564.382812 474.839844 565.917969 473.449219 C 567.453125 472.058594 568.953125 470.632812 570.417969 469.167969 C 571.882812 467.703125 573.308594 466.203125 574.699219 464.667969 C 576.089844 463.132812 577.445312 461.566406 578.757812 459.964844 C 580.070312 458.363281 581.34375 456.734375 582.578125 455.070312 C 583.8125 453.40625 585.003906 451.714844 586.15625 449.992188 C 587.308594 448.269531 588.414062 446.519531 589.480469 444.742188 C 590.542969 442.96875 591.566406 441.164062 592.542969 439.339844 C 593.519531 437.511719 594.449219 435.664062 595.335938 433.792969 C 596.222656 431.917969 597.0625 430.027344 597.855469 428.113281 C 598.648438 426.199219 599.390625 424.269531 600.089844 422.320312 C 600.789062 420.371094 601.4375 418.402344 602.039062 416.421875 C 602.640625 414.441406 603.195312 412.445312 603.699219 410.4375 C 604.203125 408.425781 604.65625 406.40625 605.058594 404.375 C 605.464844 402.34375 605.820312 400.304688 606.125 398.253906 C 606.429688 396.207031 606.683594 394.152344 606.886719 392.089844 C 607.089844 390.03125 607.242188 387.964844 607.34375 385.898438 C 607.449219 383.828125 607.5 381.757812 607.5 379.6875 L 607.5 253.125 L 734.0625 253.125 C 735.304688 253.128906 736.546875 253.164062 737.785156 253.226562 C 739.027344 253.292969 740.261719 253.386719 741.5 253.511719 C 742.734375 253.636719 743.964844 253.789062 745.195312 253.976562 C 746.421875 254.160156 747.644531 254.375 748.863281 254.621094 C 750.078125 254.867188 751.289062 255.140625 752.492188 255.445312 C 753.699219 255.75 754.894531 256.082031 756.082031 256.445312 C 757.269531 256.808594 758.445312 257.199219 759.617188 257.617188 C 760.785156 258.039062 761.941406 258.488281 763.089844 258.964844 C 764.234375 259.441406 765.367188 259.945312 766.492188 260.476562 C 767.613281 261.011719 768.722656 261.570312 769.816406 262.15625 C 770.910156 262.742188 771.988281 263.355469 773.054688 263.996094 C 774.117188 264.636719 775.167969 265.300781 776.199219 265.992188 C 777.230469 266.679688 778.246094 267.398438 779.242188 268.136719 C 780.238281 268.878906 781.21875 269.640625 782.175781 270.429688 C 783.136719 271.21875 784.078125 272.027344 784.996094 272.863281 C 785.917969 273.699219 786.816406 274.554688 787.695312 275.429688 C 788.570312 276.308594 789.429688 277.207031 790.261719 278.128906 C 791.097656 279.046875 791.90625 279.988281 792.695312 280.949219 C 793.484375 281.90625 794.246094 282.886719 794.988281 283.882812 C 795.726562 284.878906 796.445312 285.894531 797.132812 286.925781 C 797.824219 287.957031 798.488281 289.007812 799.128906 290.070312 C 799.769531 291.136719 800.382812 292.214844 800.96875 293.308594 C 801.554688 294.402344 802.113281 295.511719 802.648438 296.632812 C 803.179688 297.757812 803.683594 298.890625 804.160156 300.035156 C 804.636719 301.183594 805.085938 302.339844 805.507812 303.507812 C 805.925781 304.679688 806.316406 305.855469 806.679688 307.042969 C 807.042969 308.230469 807.375 309.425781 807.679688 310.632812 C 807.984375 311.835938 808.257812 313.046875 808.503906 314.261719 C 808.75 315.480469 808.964844 316.703125 809.148438 317.929688 C 809.335938 319.160156 809.488281 320.390625 809.613281 321.625 C 809.738281 322.863281 809.832031 324.097656 809.898438 325.339844 C 809.960938 326.578125 809.996094 327.820312 810 329.0625 Z M 810 329.0625 " fill-opacity="1" fill-rule="nonzero"/></svg>