<svg xmlns="http://www.w3.org/2000/svg" xmlns:xlink="http://www.w3.org/1999/xlink" width="1080" zoomAndPan="magnify" viewBox="0 0 810 809.999993" height="1080" preserveAspectRatio="xMidYMid meet" version="1.0"><path fill="#000000" d="M 582.1875 0 C 578.460938 0 574.734375 0.0898438 571.007812 0.273438 C 567.285156 0.457031 563.566406 0.730469 559.859375 1.097656 C 556.148438 1.460938 552.449219 1.917969 548.761719 2.464844 C 545.074219 3.011719 541.398438 3.648438 537.742188 4.378906 C 534.085938 5.105469 530.449219 5.921875 526.832031 6.828125 C 523.21875 7.734375 519.625 8.726562 516.058594 9.808594 C 512.488281 10.890625 508.949219 12.0625 505.441406 13.316406 C 501.929688 14.574219 498.453125 15.914062 495.007812 17.339844 C 491.5625 18.769531 488.15625 20.277344 484.785156 21.871094 C 481.414062 23.464844 478.085938 25.140625 474.796875 26.898438 C 471.507812 28.65625 468.265625 30.496094 465.070312 32.410156 C 461.871094 34.328125 458.722656 36.320312 455.621094 38.394531 C 452.523438 40.464844 449.472656 42.609375 446.480469 44.832031 C 443.484375 47.054688 440.546875 49.347656 437.664062 51.710938 C 434.78125 54.078125 431.960938 56.511719 429.199219 59.015625 C 426.433594 61.519531 423.734375 64.089844 421.101562 66.726562 C 418.464844 69.359375 415.894531 72.0625 413.390625 74.824219 C 410.886719 77.585938 408.453125 80.40625 406.085938 83.289062 C 403.722656 86.171875 401.425781 89.109375 399.207031 92.105469 C 396.984375 95.097656 394.839844 98.148438 392.769531 101.246094 C 390.695312 104.347656 388.703125 107.496094 386.785156 110.695312 C 384.871094 113.890625 383.03125 117.132812 381.273438 120.421875 C 379.515625 123.710938 377.839844 127.039062 376.246094 130.410156 C 374.652344 133.78125 373.144531 137.1875 371.714844 140.632812 C 370.289062 144.078125 368.949219 147.554688 367.691406 151.066406 C 366.4375 154.574219 365.265625 158.113281 364.183594 161.683594 C 363.101562 165.25 362.109375 168.84375 361.203125 172.457031 C 360.296875 176.074219 359.480469 179.710938 358.753906 183.367188 C 358.023438 187.027344 357.386719 190.699219 356.839844 194.386719 C 356.292969 198.074219 355.835938 201.773438 355.472656 205.484375 C 355.105469 209.195312 354.832031 212.910156 354.648438 216.632812 C 354.464844 220.359375 354.375 224.085938 354.375 227.8125 C 354.375 231.542969 354.464844 235.265625 354.648438 238.992188 C 354.832031 242.714844 355.105469 246.433594 355.472656 250.140625 C 355.835938 253.851562 356.292969 257.550781 356.839844 261.238281 C 357.386719 264.925781 358.023438 268.601562 358.753906 272.257812 C 359.480469 275.914062 360.296875 279.550781 361.203125 283.167969 C 362.109375 286.785156 363.101562 290.375 364.183594 293.941406 C 365.265625 297.511719 366.4375 301.050781 367.691406 304.558594 C 368.949219 308.070312 370.289062 311.546875 371.714844 314.992188 C 373.144531 318.4375 374.652344 321.84375 376.246094 325.214844 C 377.839844 328.585938 379.515625 331.914062 381.273438 335.203125 C 383.03125 338.492188 384.871094 341.734375 386.785156 344.933594 C 388.703125 348.128906 390.695312 351.277344 392.769531 354.378906 C 394.839844 357.476562 396.984375 360.527344 399.207031 363.519531 C 401.425781 366.515625 403.722656 369.453125 406.085938 372.335938 C 408.453125 375.21875 410.886719 378.039062 413.390625 380.800781 C 415.894531 383.566406 418.464844 386.265625 421.101562 388.902344 C 423.734375 391.535156 426.433594 394.105469 429.199219 396.609375 C 431.960938 399.113281 434.78125 401.550781 437.664062 403.914062 C 440.546875 406.28125 443.484375 408.574219 446.480469 410.792969 C 449.472656 413.015625 452.523438 415.160156 455.621094 417.230469 C 458.722656 419.304688 461.871094 421.296875 465.070312 423.214844 C 468.265625 425.128906 471.507812 426.96875 474.796875 428.726562 C 478.085938 430.484375 481.414062 432.160156 484.785156 433.753906 C 488.15625 435.347656 491.5625 436.855469 495.007812 438.285156 C 498.453125 439.710938 501.929688 441.050781 505.441406 442.308594 C 508.949219 443.5625 512.488281 444.734375 516.058594 445.816406 C 519.625 446.898438 523.21875 447.890625 526.832031 448.796875 C 530.449219 449.703125 534.085938 450.519531 537.742188 451.246094 C 541.398438 451.976562 545.074219 452.613281 548.761719 453.160156 C 552.449219 453.707031 556.148438 454.164062 559.859375 454.527344 C 563.566406 454.894531 567.285156 455.167969 571.007812 455.351562 C 574.734375 455.535156 578.460938 455.625 582.1875 455.625 C 585.914062 455.625 589.640625 455.535156 593.367188 455.351562 C 597.089844 455.167969 600.804688 454.894531 604.515625 454.527344 C 608.226562 454.164062 611.925781 453.707031 615.613281 453.160156 C 619.300781 452.613281 622.976562 451.976562 626.632812 451.246094 C 630.289062 450.519531 633.925781 449.703125 637.542969 448.796875 C 641.15625 447.890625 644.75 446.898438 648.316406 445.816406 C 651.886719 444.734375 655.425781 443.5625 658.933594 442.308594 C 662.445312 441.050781 665.921875 439.710938 669.367188 438.285156 C 672.8125 436.855469 676.21875 435.347656 679.589844 433.753906 C 682.960938 432.160156 686.289062 430.484375 689.578125 428.726562 C 692.867188 426.96875 696.109375 425.128906 699.304688 423.214844 C 702.503906 421.296875 705.652344 419.304688 708.753906 417.230469 C 711.851562 415.160156 714.902344 413.015625 717.894531 410.792969 C 720.890625 408.574219 723.828125 406.28125 726.710938 403.914062 C 729.59375 401.550781 732.414062 399.113281 735.175781 396.609375 C 737.941406 394.105469 740.640625 391.535156 743.273438 388.902344 C 745.910156 386.265625 748.480469 383.566406 750.984375 380.800781 C 753.488281 378.039062 755.921875 375.21875 758.289062 372.335938 C 760.652344 369.453125 762.945312 366.515625 765.167969 363.519531 C 767.390625 360.527344 769.535156 357.476562 771.605469 354.378906 C 773.679688 351.277344 775.671875 348.128906 777.589844 344.933594 C 779.503906 341.734375 781.34375 338.492188 783.101562 335.203125 C 784.859375 331.914062 786.535156 328.585938 788.128906 325.214844 C 789.722656 321.84375 791.230469 318.4375 792.660156 314.992188 C 794.085938 311.546875 795.425781 308.070312 796.683594 304.558594 C 797.9375 301.050781 799.109375 297.511719 800.191406 293.941406 C 801.273438 290.375 802.265625 286.785156 803.171875 283.167969 C 804.078125 279.550781 804.894531 275.914062 805.621094 272.257812 C 806.351562 268.601562 806.988281 264.925781 807.535156 261.238281 C 808.082031 257.550781 808.539062 253.851562 808.902344 250.140625 C 809.269531 246.433594 809.542969 242.714844 809.726562 238.992188 C 809.910156 235.265625 810 231.542969 810 227.8125 C 809.996094 224.085938 809.898438 220.363281 809.710938 216.640625 C 809.519531 212.917969 809.242188 209.203125 808.871094 205.492188 C 808.5 201.785156 808.042969 198.089844 807.488281 194.402344 C 806.9375 190.71875 806.296875 187.046875 805.566406 183.390625 C 804.835938 179.738281 804.015625 176.105469 803.105469 172.488281 C 802.195312 168.875 801.199219 165.285156 800.113281 161.71875 C 799.027344 158.15625 797.855469 154.617188 796.597656 151.109375 C 795.339844 147.601562 793.996094 144.128906 792.566406 140.6875 C 791.136719 137.242188 789.625 133.839844 788.03125 130.472656 C 786.433594 127.101562 784.757812 123.777344 783 120.492188 C 781.242188 117.203125 779.402344 113.964844 777.484375 110.769531 C 775.566406 107.574219 773.574219 104.425781 771.5 101.328125 C 769.429688 98.230469 767.285156 95.183594 765.0625 92.191406 C 762.839844 89.199219 760.550781 86.261719 758.183594 83.382812 C 755.820312 80.5 753.386719 77.679688 750.882812 74.917969 C 748.378906 72.160156 745.808594 69.460938 743.175781 66.824219 C 740.539062 64.191406 737.839844 61.621094 735.082031 59.117188 C 732.320312 56.613281 729.5 54.179688 726.617188 51.816406 C 723.738281 49.453125 720.800781 47.160156 717.808594 44.9375 C 714.816406 42.71875 711.769531 40.570312 708.671875 38.5 C 705.574219 36.425781 702.425781 34.433594 699.230469 32.515625 C 696.035156 30.597656 692.796875 28.757812 689.511719 27 C 686.222656 25.242188 682.898438 23.566406 679.527344 21.96875 C 676.160156 20.375 672.757812 18.863281 669.3125 17.433594 C 665.871094 16.003906 662.398438 14.660156 658.890625 13.402344 C 655.382812 12.144531 651.84375 10.972656 648.28125 9.886719 C 644.714844 8.800781 641.125 7.804688 637.511719 6.894531 C 633.894531 5.984375 630.261719 5.164062 626.609375 4.433594 C 622.953125 3.703125 619.285156 3.0625 615.597656 2.511719 C 611.910156 1.960938 608.214844 1.5 604.507812 1.128906 C 600.796875 0.757812 597.082031 0.480469 593.359375 0.289062 C 589.640625 0.101562 585.914062 0.0078125 582.1875 0 Z M 582.1875 367.285156 C 581.359375 367.285156 580.53125 367.242188 579.707031 367.164062 C 578.882812 367.082031 578.0625 366.960938 577.25 366.796875 C 576.4375 366.636719 575.632812 366.433594 574.839844 366.195312 C 574.046875 365.953125 573.265625 365.675781 572.5 365.359375 C 571.734375 365.039062 570.988281 364.6875 570.253906 364.296875 C 569.523438 363.90625 568.8125 363.480469 568.125 363.019531 C 567.433594 362.558594 566.769531 362.066406 566.128906 361.539062 C 565.488281 361.011719 564.875 360.457031 564.289062 359.871094 C 563.703125 359.285156 563.148438 358.671875 562.621094 358.03125 C 562.09375 357.390625 561.601562 356.722656 561.140625 356.035156 C 560.679688 355.34375 560.253906 354.636719 559.863281 353.90625 C 559.472656 353.171875 559.117188 352.425781 558.800781 351.660156 C 558.484375 350.894531 558.207031 350.113281 557.964844 349.320312 C 557.722656 348.527344 557.523438 347.722656 557.359375 346.910156 C 557.199219 346.097656 557.078125 345.277344 556.996094 344.453125 C 556.914062 343.628906 556.875 342.800781 556.875 341.972656 C 556.875 341.144531 556.914062 340.316406 556.996094 339.492188 C 557.078125 338.667969 557.199219 337.847656 557.359375 337.035156 C 557.523438 336.222656 557.722656 335.417969 557.964844 334.625 C 558.207031 333.832031 558.484375 333.050781 558.800781 332.285156 C 559.117188 331.519531 559.472656 330.769531 559.863281 330.039062 C 560.253906 329.308594 560.679688 328.597656 561.140625 327.910156 C 561.601562 327.21875 562.09375 326.554688 562.621094 325.914062 C 563.148438 325.273438 563.703125 324.660156 564.289062 324.074219 C 564.875 323.488281 565.488281 322.929688 566.128906 322.40625 C 566.769531 321.878906 567.433594 321.386719 568.125 320.925781 C 568.8125 320.464844 569.523438 320.039062 570.253906 319.648438 C 570.988281 319.257812 571.734375 318.902344 572.5 318.585938 C 573.265625 318.269531 574.046875 317.988281 574.839844 317.75 C 575.632812 317.507812 576.4375 317.308594 577.25 317.144531 C 578.0625 316.984375 578.882812 316.863281 579.707031 316.78125 C 580.53125 316.699219 581.359375 316.660156 582.1875 316.660156 C 583.015625 316.660156 583.84375 316.699219 584.667969 316.78125 C 585.492188 316.863281 586.3125 316.984375 587.125 317.144531 C 587.9375 317.308594 588.742188 317.507812 589.535156 317.75 C 590.328125 317.988281 591.109375 318.269531 591.875 318.585938 C 592.640625 318.902344 593.386719 319.257812 594.121094 319.648438 C 594.851562 320.039062 595.5625 320.464844 596.25 320.925781 C 596.941406 321.386719 597.605469 321.878906 598.246094 322.40625 C 598.886719 322.929688 599.5 323.488281 600.085938 324.074219 C 600.671875 324.660156 601.226562 325.273438 601.753906 325.914062 C 602.28125 326.554688 602.773438 327.21875 603.234375 327.910156 C 603.695312 328.597656 604.121094 329.308594 604.511719 330.039062 C 604.902344 330.769531 605.257812 331.519531 605.574219 332.285156 C 605.890625 333.050781 606.167969 333.832031 606.410156 334.625 C 606.652344 335.417969 606.851562 336.222656 607.011719 337.035156 C 607.175781 337.847656 607.296875 338.667969 607.378906 339.492188 C 607.460938 340.316406 607.5 341.144531 607.5 341.972656 C 607.496094 342.800781 607.453125 343.625 607.371094 344.449219 C 607.289062 345.273438 607.164062 346.09375 607 346.90625 C 606.835938 347.71875 606.636719 348.519531 606.394531 349.3125 C 606.152344 350.105469 605.871094 350.882812 605.554688 351.648438 C 605.234375 352.410156 604.878906 353.160156 604.488281 353.890625 C 604.097656 354.621094 603.671875 355.328125 603.210938 356.015625 C 602.75 356.707031 602.257812 357.371094 601.730469 358.011719 C 601.207031 358.648438 600.648438 359.261719 600.0625 359.847656 C 599.476562 360.433594 598.867188 360.988281 598.226562 361.515625 C 597.585938 362.042969 596.921875 362.535156 596.230469 362.996094 C 595.542969 363.457031 594.835938 363.882812 594.105469 364.273438 C 593.375 364.664062 592.628906 365.019531 591.863281 365.335938 C 591.097656 365.65625 590.320312 365.9375 589.527344 366.175781 C 588.734375 366.417969 587.933594 366.621094 587.121094 366.785156 C 586.308594 366.949219 585.492188 367.074219 584.667969 367.15625 C 583.84375 367.238281 583.015625 367.28125 582.1875 367.285156 Z M 618.890625 231.101562 C 617.980469 231.691406 617.113281 232.335938 616.289062 233.035156 C 615.464844 233.738281 614.6875 234.488281 613.960938 235.289062 C 613.234375 236.09375 612.5625 236.9375 611.945312 237.828125 C 611.328125 238.714844 610.769531 239.640625 610.273438 240.601562 C 609.773438 241.5625 609.339844 242.554688 608.972656 243.570312 C 608.605469 244.589844 608.304688 245.625 608.070312 246.683594 C 607.835938 247.738281 607.671875 248.808594 607.574219 249.886719 C 607.480469 250.964844 607.453125 252.042969 607.5 253.125 L 607.5 265.78125 C 607.5 266.609375 607.460938 267.4375 607.378906 268.261719 C 607.296875 269.085938 607.175781 269.90625 607.011719 270.71875 C 606.851562 271.53125 606.652344 272.335938 606.410156 273.128906 C 606.167969 273.921875 605.890625 274.703125 605.574219 275.46875 C 605.257812 276.234375 604.902344 276.984375 604.511719 277.714844 C 604.121094 278.445312 603.695312 279.15625 603.234375 279.84375 C 602.773438 280.535156 602.28125 281.199219 601.753906 281.839844 C 601.226562 282.480469 600.671875 283.09375 600.085938 283.679688 C 599.5 284.265625 598.886719 284.824219 598.246094 285.347656 C 597.605469 285.875 596.941406 286.367188 596.25 286.828125 C 595.5625 287.289062 594.851562 287.714844 594.121094 288.105469 C 593.386719 288.496094 592.640625 288.851562 591.875 289.167969 C 591.109375 289.484375 590.328125 289.761719 589.535156 290.003906 C 588.742188 290.246094 587.9375 290.445312 587.125 290.609375 C 586.3125 290.769531 585.492188 290.890625 584.667969 290.972656 C 583.84375 291.054688 583.015625 291.09375 582.1875 291.09375 C 581.359375 291.09375 580.53125 291.054688 579.707031 290.972656 C 578.882812 290.890625 578.0625 290.769531 577.25 290.609375 C 576.4375 290.445312 575.632812 290.246094 574.839844 290.003906 C 574.046875 289.761719 573.265625 289.484375 572.5 289.167969 C 571.734375 288.851562 570.988281 288.496094 570.253906 288.105469 C 569.523438 287.714844 568.8125 287.289062 568.125 286.828125 C 567.433594 286.367188 566.769531 285.875 566.128906 285.347656 C 565.488281 284.824219 564.875 284.265625 564.289062 283.679688 C 563.703125 283.09375 563.148438 282.480469 562.621094 281.839844 C 562.09375 281.199219 561.601562 280.535156 561.140625 279.84375 C 560.679688 279.15625 560.253906 278.445312 559.863281 277.714844 C 559.472656 276.984375 559.117188 276.234375 558.800781 275.46875 C 558.484375 274.703125 558.207031 273.921875 557.964844 273.128906 C 557.722656 272.335938 557.523438 271.53125 557.359375 270.71875 C 557.199219 269.90625 557.078125 269.085938 556.996094 268.261719 C 556.914062 267.4375 556.875 266.609375 556.875 265.78125 L 556.875 253.125 C 556.816406 249.792969 556.980469 246.46875 557.363281 243.160156 C 557.746094 239.847656 558.347656 236.578125 559.167969 233.347656 C 559.984375 230.113281 561.015625 226.953125 562.253906 223.859375 C 563.496094 220.765625 564.933594 217.765625 566.574219 214.863281 C 568.214844 211.960938 570.039062 209.179688 572.046875 206.523438 C 574.058594 203.863281 576.234375 201.347656 578.578125 198.980469 C 580.925781 196.609375 583.414062 194.40625 586.054688 192.367188 C 588.691406 190.332031 591.453125 188.476562 594.335938 186.804688 C 595.472656 186.183594 596.550781 185.476562 597.574219 184.6875 C 598.601562 183.898438 599.558594 183.035156 600.453125 182.101562 C 601.347656 181.164062 602.164062 180.167969 602.902344 179.105469 C 603.644531 178.046875 604.300781 176.933594 604.871094 175.773438 C 605.441406 174.613281 605.917969 173.414062 606.304688 172.179688 C 606.691406 170.945312 606.984375 169.6875 607.179688 168.410156 C 607.371094 167.132812 607.46875 165.84375 607.464844 164.550781 C 607.464844 163.257812 607.363281 161.972656 607.164062 160.695312 C 606.964844 159.414062 606.667969 158.160156 606.277344 156.925781 C 605.886719 155.695312 605.402344 154.5 604.828125 153.339844 C 604.253906 152.179688 603.59375 151.070312 602.847656 150.015625 C 602.105469 148.957031 601.285156 147.960938 600.386719 147.027344 C 599.492188 146.097656 598.527344 145.238281 597.5 144.453125 C 596.472656 143.667969 595.390625 142.964844 594.253906 142.34375 C 593.117188 141.726562 591.941406 141.195312 590.726562 140.757812 C 589.507812 140.316406 588.265625 139.972656 586.996094 139.726562 C 585.160156 139.347656 583.300781 139.175781 581.425781 139.21875 C 579.550781 139.261719 577.703125 139.511719 575.882812 139.972656 C 574.0625 140.433594 572.316406 141.089844 570.648438 141.945312 C 568.976562 142.800781 567.425781 143.832031 565.988281 145.039062 C 564.554688 146.226562 563.265625 147.554688 562.128906 149.027344 C 560.992188 150.496094 560.027344 152.074219 559.238281 153.761719 C 558.453125 155.445312 557.859375 157.199219 557.457031 159.015625 C 557.058594 160.832031 556.867188 162.671875 556.875 164.53125 C 556.875 165.359375 556.835938 166.1875 556.753906 167.011719 C 556.671875 167.835938 556.550781 168.65625 556.386719 169.46875 C 556.226562 170.28125 556.027344 171.085938 555.785156 171.878906 C 555.542969 172.671875 555.265625 173.453125 554.949219 174.21875 C 554.632812 174.984375 554.277344 175.734375 553.886719 176.464844 C 553.496094 177.195312 553.070312 177.90625 552.609375 178.59375 C 552.148438 179.285156 551.65625 179.949219 551.128906 180.589844 C 550.601562 181.230469 550.046875 181.84375 549.460938 182.429688 C 548.875 183.015625 548.261719 183.574219 547.621094 184.097656 C 546.980469 184.625 546.316406 185.117188 545.625 185.578125 C 544.9375 186.039062 544.226562 186.464844 543.496094 186.855469 C 542.761719 187.246094 542.015625 187.601562 541.25 187.917969 C 540.484375 188.234375 539.703125 188.511719 538.910156 188.753906 C 538.117188 188.996094 537.3125 189.195312 536.5 189.359375 C 535.6875 189.519531 534.867188 189.640625 534.042969 189.722656 C 533.21875 189.804688 532.390625 189.84375 531.5625 189.84375 C 530.734375 189.84375 529.90625 189.804688 529.082031 189.722656 C 528.257812 189.640625 527.4375 189.519531 526.625 189.359375 C 525.8125 189.195312 525.007812 188.996094 524.214844 188.753906 C 523.421875 188.511719 522.640625 188.234375 521.875 187.917969 C 521.109375 187.601562 520.363281 187.246094 519.628906 186.855469 C 518.898438 186.464844 518.1875 186.039062 517.5 185.578125 C 516.808594 185.117188 516.144531 184.625 515.503906 184.097656 C 514.863281 183.574219 514.25 183.015625 513.664062 182.429688 C 513.078125 181.84375 512.523438 181.230469 511.996094 180.589844 C 511.46875 179.949219 510.976562 179.285156 510.515625 178.59375 C 510.054688 177.90625 509.628906 177.195312 509.238281 176.464844 C 508.847656 175.734375 508.492188 174.984375 508.175781 174.21875 C 507.859375 173.453125 507.582031 172.671875 507.339844 171.878906 C 507.097656 171.085938 506.898438 170.28125 506.734375 169.46875 C 506.574219 168.65625 506.453125 167.835938 506.371094 167.011719 C 506.289062 166.1875 506.25 165.359375 506.25 164.53125 C 506.253906 162.3125 506.351562 160.097656 506.550781 157.886719 C 506.746094 155.675781 507.039062 153.476562 507.429688 151.292969 C 507.820312 149.105469 508.304688 146.941406 508.886719 144.800781 C 509.464844 142.65625 510.136719 140.542969 510.902344 138.460938 C 511.667969 136.378906 512.523438 134.332031 513.464844 132.324219 C 514.410156 130.3125 515.441406 128.351562 516.558594 126.433594 C 517.675781 124.511719 518.871094 122.648438 520.152344 120.835938 C 521.433594 119.019531 522.789062 117.269531 524.222656 115.574219 C 525.65625 113.878906 527.164062 112.25 528.738281 110.6875 C 530.316406 109.125 531.957031 107.636719 533.667969 106.21875 C 535.375 104.800781 537.140625 103.460938 538.964844 102.195312 C 540.789062 100.933594 542.667969 99.75 544.59375 98.652344 C 546.523438 97.554688 548.496094 96.542969 550.515625 95.617188 C 552.53125 94.691406 554.585938 93.855469 556.675781 93.109375 C 558.765625 92.363281 560.886719 91.710938 563.035156 91.152344 C 565.183594 90.589844 567.351562 90.125 569.539062 89.757812 C 571.726562 89.386719 573.929688 89.113281 576.140625 88.9375 C 578.351562 88.761719 580.570312 88.679688 582.789062 88.699219 C 585.007812 88.714844 587.222656 88.832031 589.433594 89.042969 C 591.640625 89.253906 593.839844 89.5625 596.019531 89.96875 C 598.203125 90.371094 600.363281 90.871094 602.503906 91.464844 C 604.640625 92.058594 606.75 92.746094 608.828125 93.523438 C 610.90625 94.304688 612.945312 95.171875 614.949219 96.128906 C 616.953125 97.085938 618.90625 98.128906 620.820312 99.257812 C 622.730469 100.390625 624.585938 101.601562 626.390625 102.890625 C 628.195312 104.183594 629.941406 105.554688 631.625 107 C 633.3125 108.445312 634.929688 109.960938 636.480469 111.546875 C 638.03125 113.132812 639.511719 114.785156 640.917969 116.503906 C 642.324219 118.21875 643.652344 119.996094 644.90625 121.828125 C 646.15625 123.660156 647.324219 125.546875 648.410156 127.480469 C 649.496094 129.417969 650.496094 131.398438 651.410156 133.421875 C 652.320312 135.445312 653.140625 137.503906 653.875 139.601562 C 654.605469 141.695312 655.246094 143.820312 655.789062 145.96875 C 656.335938 148.121094 656.785156 150.292969 657.140625 152.484375 C 657.496094 154.675781 657.753906 156.878906 657.914062 159.089844 C 658.078125 161.304688 658.144531 163.523438 658.109375 165.742188 C 658.078125 167.960938 657.949219 170.175781 657.722656 172.382812 C 657.496094 174.589844 657.171875 176.785156 656.753906 178.964844 C 656.335938 181.144531 655.820312 183.300781 655.210938 185.433594 C 654.605469 187.570312 653.902344 189.675781 653.113281 191.746094 C 652.320312 193.820312 651.4375 195.855469 650.464844 197.851562 C 649.496094 199.847656 648.4375 201.796875 647.296875 203.699219 C 646.152344 205.601562 644.929688 207.453125 643.625 209.25 C 642.324219 211.046875 640.941406 212.78125 639.484375 214.457031 C 638.03125 216.128906 636.503906 217.738281 634.90625 219.28125 C 633.308594 220.820312 631.644531 222.289062 629.917969 223.683594 C 628.191406 225.078125 626.410156 226.398438 624.566406 227.636719 C 622.726562 228.875 620.832031 230.03125 618.890625 231.101562 Z M 618.890625 231.101562 " fill-opacity="1" fill-rule="nonzero"/><path fill="#000000" d="M 582.1875 506.25 C 575.445312 506.253906 568.714844 506.011719 561.988281 505.523438 C 555.265625 505.039062 548.566406 504.304688 541.898438 503.328125 C 535.226562 502.351562 528.601562 501.132812 522.019531 499.671875 C 515.4375 498.210938 508.917969 496.511719 502.460938 494.574219 C 496.003906 492.636719 489.628906 490.464844 483.328125 488.0625 C 477.03125 485.660156 470.828125 483.027344 464.71875 480.171875 C 458.613281 477.316406 452.621094 474.242188 446.738281 470.945312 C 440.855469 467.652344 435.101562 464.148438 429.476562 460.429688 C 429.253906 461.886719 428.902344 463.308594 428.429688 464.699219 C 427.953125 466.09375 427.359375 467.433594 426.648438 468.71875 C 425.9375 470.007812 425.117188 471.222656 424.191406 472.363281 C 423.265625 473.507812 422.246094 474.558594 421.132812 475.519531 C 420.019531 476.484375 418.832031 477.339844 417.570312 478.09375 C 416.304688 478.84375 414.984375 479.480469 413.609375 480 C 412.230469 480.519531 410.820312 480.914062 409.375 481.183594 C 407.929688 481.453125 406.472656 481.59375 405 481.605469 L 126.5625 481.605469 C 125.734375 481.605469 124.90625 481.566406 124.082031 481.484375 C 123.257812 481.402344 122.4375 481.28125 121.625 481.117188 C 120.8125 480.957031 120.007812 480.757812 119.214844 480.515625 C 118.421875 480.273438 117.640625 479.996094 116.875 479.679688 C 116.109375 479.359375 115.363281 479.007812 114.628906 478.617188 C 113.898438 478.226562 113.1875 477.800781 112.5 477.339844 C 111.808594 476.878906 111.144531 476.386719 110.503906 475.859375 C 109.863281 475.332031 109.25 474.777344 108.664062 474.191406 C 108.078125 473.605469 107.523438 472.992188 106.996094 472.351562 C 106.46875 471.710938 105.976562 471.042969 105.515625 470.355469 C 105.054688 469.667969 104.628906 468.957031 104.238281 468.226562 C 103.847656 467.492188 103.492188 466.746094 103.175781 465.980469 C 102.859375 465.214844 102.582031 464.433594 102.339844 463.640625 C 102.097656 462.847656 101.898438 462.042969 101.738281 461.230469 C 101.574219 460.417969 101.453125 459.597656 101.371094 458.773438 C 101.289062 457.949219 101.25 457.121094 101.25 456.292969 C 101.25 455.464844 101.289062 454.636719 101.371094 453.8125 C 101.453125 452.988281 101.574219 452.167969 101.738281 451.355469 C 101.898438 450.542969 102.097656 449.738281 102.339844 448.945312 C 102.582031 448.152344 102.859375 447.371094 103.175781 446.605469 C 103.492188 445.839844 103.847656 445.089844 104.238281 444.359375 C 104.628906 443.628906 105.054688 442.917969 105.515625 442.230469 C 105.976562 441.539062 106.46875 440.875 106.996094 440.234375 C 107.523438 439.59375 108.078125 438.980469 108.664062 438.394531 C 109.25 437.808594 109.863281 437.25 110.503906 436.726562 C 111.144531 436.199219 111.808594 435.707031 112.5 435.246094 C 113.1875 434.785156 113.898438 434.359375 114.628906 433.96875 C 115.363281 433.578125 116.109375 433.222656 116.875 432.90625 C 117.640625 432.589844 118.421875 432.3125 119.214844 432.070312 C 120.007812 431.828125 120.8125 431.628906 121.625 431.464844 C 122.4375 431.304688 123.257812 431.183594 124.082031 431.101562 C 124.90625 431.019531 125.734375 430.980469 126.5625 430.980469 L 392.320312 430.980469 C 374.195312 414.027344 358.601562 395.003906 345.546875 373.902344 C 343.285156 375.945312 340.734375 377.523438 337.894531 378.636719 C 335.054688 379.75 332.113281 380.320312 329.0625 380.355469 L 126.5625 380.355469 C 125.734375 380.355469 124.90625 380.316406 124.082031 380.234375 C 123.257812 380.152344 122.4375 380.03125 121.625 379.867188 C 120.8125 379.707031 120.007812 379.507812 119.214844 379.265625 C 118.421875 379.023438 117.640625 378.746094 116.875 378.429688 C 116.109375 378.109375 115.363281 377.757812 114.628906 377.367188 C 113.898438 376.976562 113.1875 376.550781 112.5 376.089844 C 111.808594 375.628906 111.144531 375.136719 110.503906 374.609375 C 109.863281 374.082031 109.25 373.527344 108.664062 372.941406 C 108.078125 372.355469 107.523438 371.742188 106.996094 371.101562 C 106.46875 370.460938 105.976562 369.796875 105.515625 369.105469 C 105.054688 368.417969 104.628906 367.707031 104.238281 366.976562 C 103.847656 366.242188 103.492188 365.496094 103.175781 364.730469 C 102.859375 363.964844 102.582031 363.183594 102.339844 362.390625 C 102.097656 361.597656 101.898438 360.792969 101.738281 359.980469 C 101.574219 359.167969 101.453125 358.347656 101.371094 357.523438 C 101.289062 356.699219 101.25 355.871094 101.25 355.042969 C 101.25 354.214844 101.289062 353.386719 101.371094 352.5625 C 101.453125 351.738281 101.574219 350.917969 101.738281 350.105469 C 101.898438 349.292969 102.097656 348.488281 102.339844 347.695312 C 102.582031 346.902344 102.859375 346.121094 103.175781 345.355469 C 103.492188 344.589844 103.847656 343.839844 104.238281 343.109375 C 104.628906 342.378906 105.054688 341.667969 105.515625 340.980469 C 105.976562 340.289062 106.46875 339.625 106.996094 338.984375 C 107.523438 338.34375 108.078125 337.730469 108.664062 337.144531 C 109.25 336.558594 109.863281 336 110.503906 335.476562 C 111.144531 334.949219 111.808594 334.457031 112.5 333.996094 C 113.1875 333.535156 113.898438 333.109375 114.628906 332.71875 C 115.363281 332.328125 116.109375 331.972656 116.875 331.65625 C 117.640625 331.339844 118.421875 331.0625 119.214844 330.820312 C 120.007812 330.578125 120.8125 330.378906 121.625 330.214844 C 122.4375 330.054688 123.257812 329.933594 124.082031 329.851562 C 124.90625 329.769531 125.734375 329.730469 126.5625 329.730469 L 323.300781 329.730469 C 316.664062 312.914062 311.722656 295.617188 308.484375 277.832031 C 306.4375 278.535156 304.332031 278.960938 302.167969 279.105469 L 126.5625 279.105469 C 125.734375 279.105469 124.90625 279.066406 124.082031 278.984375 C 123.257812 278.902344 122.4375 278.78125 121.625 278.617188 C 120.8125 278.457031 120.007812 278.257812 119.214844 278.015625 C 118.421875 277.773438 117.640625 277.496094 116.875 277.179688 C 116.109375 276.859375 115.363281 276.507812 114.628906 276.117188 C 113.898438 275.726562 113.1875 275.300781 112.5 274.839844 C 111.808594 274.378906 111.144531 273.886719 110.503906 273.359375 C 109.863281 272.832031 109.25 272.277344 108.664062 271.691406 C 108.078125 271.105469 107.523438 270.492188 106.996094 269.851562 C 106.46875 269.210938 105.976562 268.542969 105.515625 267.855469 C 105.054688 267.167969 104.628906 266.457031 104.238281 265.726562 C 103.847656 264.992188 103.492188 264.246094 103.175781 263.480469 C 102.859375 262.714844 102.582031 261.933594 102.339844 261.140625 C 102.097656 260.347656 101.898438 259.542969 101.738281 258.730469 C 101.574219 257.917969 101.453125 257.097656 101.371094 256.273438 C 101.289062 255.449219 101.25 254.621094 101.25 253.792969 C 101.25 252.964844 101.289062 252.136719 101.371094 251.3125 C 101.453125 250.488281 101.574219 249.667969 101.738281 248.855469 C 101.898438 248.042969 102.097656 247.238281 102.339844 246.445312 C 102.582031 245.652344 102.859375 244.871094 103.175781 244.105469 C 103.492188 243.339844 103.847656 242.589844 104.238281 241.859375 C 104.628906 241.128906 105.054688 240.417969 105.515625 239.730469 C 105.976562 239.039062 106.46875 238.375 106.996094 237.734375 C 107.523438 237.09375 108.078125 236.480469 108.664062 235.894531 C 109.25 235.308594 109.863281 234.75 110.503906 234.226562 C 111.144531 233.699219 111.808594 233.207031 112.5 232.746094 C 113.1875 232.285156 113.898438 231.859375 114.628906 231.46875 C 115.363281 231.078125 116.109375 230.722656 116.875 230.40625 C 117.640625 230.089844 118.421875 229.8125 119.214844 229.570312 C 120.007812 229.328125 120.8125 229.128906 121.625 228.964844 C 122.4375 228.804688 123.257812 228.683594 124.082031 228.601562 C 124.90625 228.519531 125.734375 228.480469 126.5625 228.480469 L 302.167969 228.480469 C 302.746094 228.480469 303.230469 228.769531 303.800781 228.808594 C 303.800781 228.472656 303.75 228.148438 303.75 227.8125 C 303.757812 210.496094 305.355469 193.328125 308.546875 176.308594 C 311.738281 159.289062 316.46875 142.707031 322.734375 126.5625 L 75.9375 126.5625 C 74.695312 126.566406 73.453125 126.601562 72.214844 126.664062 C 70.972656 126.730469 69.738281 126.824219 68.5 126.949219 C 67.265625 127.074219 66.035156 127.226562 64.804688 127.414062 C 63.578125 127.597656 62.355469 127.8125 61.136719 128.058594 C 59.921875 128.304688 58.710938 128.578125 57.507812 128.882812 C 56.300781 129.1875 55.105469 129.519531 53.917969 129.882812 C 52.730469 130.246094 51.554688 130.636719 50.382812 131.058594 C 49.214844 131.476562 48.058594 131.925781 46.910156 132.402344 C 45.765625 132.878906 44.632812 133.382812 43.507812 133.917969 C 42.386719 134.449219 41.28125 135.007812 40.183594 135.59375 C 39.089844 136.179688 38.011719 136.792969 36.945312 137.433594 C 35.882812 138.074219 34.832031 138.738281 33.800781 139.429688 C 32.769531 140.121094 31.753906 140.835938 30.757812 141.574219 C 29.761719 142.316406 28.78125 143.078125 27.824219 143.867188 C 26.863281 144.65625 25.921875 145.46875 25.003906 146.300781 C 24.082031 147.136719 23.183594 147.992188 22.308594 148.871094 C 21.429688 149.746094 20.574219 150.648438 19.738281 151.566406 C 18.90625 152.488281 18.09375 153.425781 17.304688 154.386719 C 16.515625 155.34375 15.753906 156.324219 15.011719 157.320312 C 14.273438 158.316406 13.558594 159.332031 12.867188 160.363281 C 12.175781 161.394531 11.511719 162.445312 10.871094 163.507812 C 10.230469 164.574219 9.617188 165.652344 9.03125 166.746094 C 8.445312 167.84375 7.886719 168.949219 7.355469 170.070312 C 6.820312 171.195312 6.316406 172.328125 5.839844 173.476562 C 5.363281 174.621094 4.914062 175.777344 4.492188 176.949219 C 4.074219 178.117188 3.683594 179.292969 3.320312 180.480469 C 2.957031 181.667969 2.625 182.863281 2.320312 184.070312 C 2.015625 185.273438 1.742188 186.484375 1.496094 187.699219 C 1.25 188.917969 1.035156 190.140625 0.851562 191.367188 C 0.664062 192.597656 0.511719 193.828125 0.386719 195.0625 C 0.261719 196.300781 0.167969 197.539062 0.101562 198.777344 C 0.0390625 200.015625 0.00390625 201.257812 0 202.5 L 0 607.5 C 0.00390625 609.449219 0.0859375 611.394531 0.238281 613.335938 C 0.394531 615.277344 0.621094 617.210938 0.921875 619.132812 C 1.226562 621.058594 1.601562 622.96875 2.050781 624.863281 C 2.5 626.757812 3.019531 628.636719 3.609375 630.492188 C 4.203125 632.347656 4.867188 634.175781 5.597656 635.980469 C 6.332031 637.785156 7.128906 639.5625 8 641.304688 C 8.867188 643.046875 9.800781 644.753906 10.800781 646.429688 C 11.800781 648.101562 12.863281 649.730469 13.984375 651.320312 C 15.109375 652.914062 16.292969 654.457031 17.535156 655.957031 C 18.777344 657.457031 20.078125 658.910156 21.429688 660.308594 C 22.785156 661.710938 24.191406 663.058594 25.644531 664.351562 C 27.101562 665.644531 28.609375 666.878906 30.160156 668.054688 C 31.710938 669.234375 33.304688 670.351562 34.941406 671.40625 C 36.578125 672.460938 38.253906 673.453125 39.96875 674.378906 C 41.679688 675.308594 43.425781 676.167969 45.203125 676.960938 C 46.984375 677.753906 48.789062 678.480469 50.625 679.132812 L 50.625 784.6875 C 50.621094 785.890625 50.703125 787.089844 50.871094 788.28125 C 51.039062 789.476562 51.289062 790.648438 51.625 791.808594 C 51.960938 792.964844 52.375 794.089844 52.875 795.1875 C 53.371094 796.285156 53.941406 797.339844 54.589844 798.355469 C 55.234375 799.371094 55.953125 800.335938 56.738281 801.25 C 57.523438 802.164062 58.367188 803.015625 59.273438 803.808594 C 60.183594 804.601562 61.140625 805.324219 62.152344 805.980469 C 63.160156 806.636719 64.214844 807.21875 65.304688 807.722656 C 68.6875 809.242188 72.230469 810 75.9375 810 C 78.894531 810 81.761719 809.5 84.546875 808.5 C 87.328125 807.5 89.859375 806.0625 92.136719 804.179688 L 236.925781 683.4375 L 632.8125 683.4375 C 634.054688 683.433594 635.296875 683.398438 636.535156 683.335938 C 637.773438 683.269531 639.011719 683.175781 640.25 683.050781 C 641.484375 682.925781 642.714844 682.773438 643.945312 682.585938 C 645.171875 682.402344 646.394531 682.1875 647.613281 681.941406 C 648.828125 681.695312 650.039062 681.421875 651.242188 681.117188 C 652.449219 680.8125 653.644531 680.480469 654.832031 680.117188 C 656.019531 679.753906 657.195312 679.363281 658.367188 678.945312 C 659.535156 678.523438 660.691406 678.074219 661.839844 677.597656 C 662.984375 677.121094 664.117188 676.617188 665.242188 676.082031 C 666.363281 675.550781 667.46875 674.992188 668.566406 674.40625 C 669.660156 673.820312 670.738281 673.207031 671.804688 672.566406 C 672.867188 671.925781 673.917969 671.261719 674.949219 670.570312 C 675.980469 669.882812 676.996094 669.164062 677.992188 668.425781 C 678.988281 667.683594 679.96875 666.921875 680.925781 666.132812 C 681.886719 665.34375 682.828125 664.535156 683.746094 663.699219 C 684.667969 662.863281 685.566406 662.007812 686.441406 661.132812 C 687.320312 660.253906 688.175781 659.355469 689.011719 658.433594 C 689.84375 657.515625 690.65625 656.574219 691.445312 655.613281 C 692.234375 654.65625 692.996094 653.675781 693.738281 652.679688 C 694.476562 651.683594 695.191406 650.667969 695.882812 649.636719 C 696.574219 648.605469 697.238281 647.554688 697.878906 646.492188 C 698.519531 645.425781 699.132812 644.347656 699.71875 643.253906 C 700.304688 642.160156 700.863281 641.050781 701.394531 639.929688 C 701.929688 638.804688 702.433594 637.671875 702.910156 636.527344 C 703.386719 635.378906 703.835938 634.222656 704.253906 633.054688 C 704.675781 631.882812 705.066406 630.707031 705.429688 629.519531 C 705.792969 628.332031 706.125 627.136719 706.429688 625.929688 C 706.734375 624.726562 707.007812 623.515625 707.253906 622.300781 C 707.5 621.082031 707.714844 619.859375 707.898438 618.632812 C 708.085938 617.402344 708.238281 616.171875 708.363281 614.9375 C 708.488281 613.699219 708.582031 612.464844 708.648438 611.222656 C 708.710938 609.984375 708.746094 608.742188 708.75 607.5 L 708.75 475.875 C 698.992188 480.871094 688.972656 485.273438 678.691406 489.078125 C 668.414062 492.882812 657.941406 496.0625 647.28125 498.621094 C 636.625 501.179688 625.851562 503.097656 614.960938 504.375 C 604.074219 505.648438 593.148438 506.273438 582.1875 506.25 Z M 582.1875 582.855469 L 126.5625 582.855469 C 125.734375 582.855469 124.90625 582.816406 124.082031 582.734375 C 123.257812 582.652344 122.4375 582.53125 121.625 582.367188 C 120.8125 582.207031 120.007812 582.007812 119.214844 581.765625 C 118.421875 581.523438 117.640625 581.246094 116.875 580.929688 C 116.109375 580.609375 115.363281 580.257812 114.628906 579.867188 C 113.898438 579.476562 113.1875 579.050781 112.5 578.589844 C 111.808594 578.128906 111.144531 577.636719 110.503906 577.109375 C 109.863281 576.582031 109.25 576.027344 108.664062 575.441406 C 108.078125 574.855469 107.523438 574.242188 106.996094 573.601562 C 106.46875 572.960938 105.976562 572.292969 105.515625 571.605469 C 105.054688 570.917969 104.628906 570.207031 104.238281 569.476562 C 103.847656 568.742188 103.492188 567.996094 103.175781 567.230469 C 102.859375 566.464844 102.582031 565.683594 102.339844 564.890625 C 102.097656 564.097656 101.898438 563.292969 101.738281 562.480469 C 101.574219 561.667969 101.453125 560.847656 101.371094 560.023438 C 101.289062 559.199219 101.25 558.371094 101.25 557.542969 C 101.25 556.714844 101.289062 555.886719 101.371094 555.0625 C 101.453125 554.238281 101.574219 553.417969 101.738281 552.605469 C 101.898438 551.792969 102.097656 550.988281 102.339844 550.195312 C 102.582031 549.402344 102.859375 548.621094 103.175781 547.855469 C 103.492188 547.089844 103.847656 546.339844 104.238281 545.609375 C 104.628906 544.878906 105.054688 544.167969 105.515625 543.480469 C 105.976562 542.789062 106.46875 542.125 106.996094 541.484375 C 107.523438 540.84375 108.078125 540.230469 108.664062 539.644531 C 109.25 539.058594 109.863281 538.5 110.503906 537.976562 C 111.144531 537.449219 111.808594 536.957031 112.5 536.496094 C 113.1875 536.035156 113.898438 535.609375 114.628906 535.21875 C 115.363281 534.828125 116.109375 534.472656 116.875 534.15625 C 117.640625 533.839844 118.421875 533.5625 119.214844 533.320312 C 120.007812 533.078125 120.8125 532.878906 121.625 532.714844 C 122.4375 532.554688 123.257812 532.433594 124.082031 532.351562 C 124.90625 532.269531 125.734375 532.230469 126.5625 532.230469 L 582.1875 532.230469 C 583.015625 532.230469 583.84375 532.269531 584.667969 532.351562 C 585.492188 532.433594 586.3125 532.554688 587.125 532.714844 C 587.9375 532.878906 588.742188 533.078125 589.535156 533.320312 C 590.328125 533.5625 591.109375 533.839844 591.875 534.15625 C 592.640625 534.472656 593.386719 534.828125 594.121094 535.21875 C 594.851562 535.609375 595.5625 536.035156 596.25 536.496094 C 596.941406 536.957031 597.605469 537.449219 598.246094 537.976562 C 598.886719 538.5 599.5 539.058594 600.085938 539.644531 C 600.671875 540.230469 601.226562 540.84375 601.753906 541.484375 C 602.28125 542.125 602.773438 542.789062 603.234375 543.480469 C 603.695312 544.167969 604.121094 544.878906 604.511719 545.609375 C 604.902344 546.339844 605.257812 547.089844 605.574219 547.855469 C 605.890625 548.621094 606.167969 549.402344 606.410156 550.195312 C 606.652344 550.988281 606.851562 551.792969 607.011719 552.605469 C 607.175781 553.417969 607.296875 554.238281 607.378906 555.0625 C 607.460938 555.886719 607.5 556.714844 607.5 557.542969 C 607.5 558.371094 607.460938 559.199219 607.378906 560.023438 C 607.296875 560.847656 607.175781 561.667969 607.011719 562.480469 C 606.851562 563.292969 606.652344 564.097656 606.410156 564.890625 C 606.167969 565.683594 605.890625 566.464844 605.574219 567.230469 C 605.257812 567.996094 604.902344 568.742188 604.511719 569.476562 C 604.121094 570.207031 603.695312 570.917969 603.234375 571.605469 C 602.773438 572.292969 602.28125 572.960938 601.753906 573.601562 C 601.226562 574.242188 600.671875 574.855469 600.085938 575.441406 C 599.5 576.027344 598.886719 576.582031 598.246094 577.109375 C 597.605469 577.636719 596.941406 578.128906 596.25 578.589844 C 595.5625 579.050781 594.851562 579.476562 594.121094 579.867188 C 593.386719 580.257812 592.640625 580.609375 591.875 580.929688 C 591.109375 581.246094 590.328125 581.523438 589.535156 581.765625 C 588.742188 582.007812 587.9375 582.207031 587.125 582.367188 C 586.3125 582.53125 585.492188 582.652344 584.667969 582.734375 C 583.84375 582.816406 583.015625 582.855469 582.1875 582.855469 Z M 582.1875 582.855469 " fill-opacity="1" fill-rule="nonzero"/></svg>